<mxfile host="app.diagrams.net" agent="Mozilla/5.0 (Windows NT 10.0; Win64; x64) AppleWebKit/537.36 (KHTML, like Gecko) Chrome/130.0.0.0 Safari/537.36 QuarkPC/2.6.0.313" version="26.2.14">
  <diagram name="第 1 页" id="T6N2bktz_-cecz_nlqVh">
    <mxGraphModel dx="2767" dy="1820" grid="1" gridSize="10" guides="1" tooltips="1" connect="1" arrows="1" fold="1" page="1" pageScale="1" pageWidth="4681" pageHeight="3300" math="0" shadow="0">
      <root>
        <mxCell id="0" />
        <mxCell id="1" parent="0" />
        <mxCell id="Cd3ZHtpQ2IgxeuWron2F-269" style="edgeStyle=orthogonalEdgeStyle;rounded=0;orthogonalLoop=1;jettySize=auto;html=1;exitX=1;exitY=0.5;exitDx=0;exitDy=0;entryX=0.125;entryY=0.469;entryDx=0;entryDy=0;entryPerimeter=0;strokeWidth=3;endArrow=none;startFill=0;strokeColor=#3399FF;" edge="1" parent="1" source="Cd3ZHtpQ2IgxeuWron2F-132" target="Cd3ZHtpQ2IgxeuWron2F-217">
          <mxGeometry relative="1" as="geometry" />
        </mxCell>
        <mxCell id="Cd3ZHtpQ2IgxeuWron2F-263" style="edgeStyle=orthogonalEdgeStyle;rounded=0;orthogonalLoop=1;jettySize=auto;html=1;endArrow=none;endFill=1;strokeColor=#3399FF;strokeWidth=3;startFill=0;fontSize=22;" edge="1" parent="1" source="Cd3ZHtpQ2IgxeuWron2F-257" target="Cd3ZHtpQ2IgxeuWron2F-259">
          <mxGeometry relative="1" as="geometry" />
        </mxCell>
        <mxCell id="Cd3ZHtpQ2IgxeuWron2F-213" style="edgeStyle=orthogonalEdgeStyle;rounded=0;orthogonalLoop=1;jettySize=auto;html=1;endArrow=none;endFill=1;strokeColor=#3399FF;strokeWidth=3;startFill=0;fontSize=22;" edge="1" parent="1" source="Cd3ZHtpQ2IgxeuWron2F-193" target="Cd3ZHtpQ2IgxeuWron2F-195">
          <mxGeometry relative="1" as="geometry" />
        </mxCell>
        <mxCell id="UiGEefSNBk0QhE1fhSva-100" style="edgeStyle=orthogonalEdgeStyle;rounded=0;orthogonalLoop=1;jettySize=auto;html=1;endArrow=none;endFill=1;strokeColor=#3399FF;strokeWidth=6;startFill=0;fontSize=22;" parent="1" source="UiGEefSNBk0QhE1fhSva-131" target="UiGEefSNBk0QhE1fhSva-134" edge="1">
          <mxGeometry relative="1" as="geometry" />
        </mxCell>
        <mxCell id="UiGEefSNBk0QhE1fhSva-101" style="edgeStyle=orthogonalEdgeStyle;rounded=0;orthogonalLoop=1;jettySize=auto;html=1;endArrow=none;endFill=1;strokeColor=#3399FF;strokeWidth=6;startFill=0;fontSize=22;" parent="1" source="UiGEefSNBk0QhE1fhSva-123" target="UiGEefSNBk0QhE1fhSva-126" edge="1">
          <mxGeometry relative="1" as="geometry" />
        </mxCell>
        <mxCell id="UiGEefSNBk0QhE1fhSva-128" style="edgeStyle=orthogonalEdgeStyle;rounded=0;orthogonalLoop=1;jettySize=auto;html=1;exitX=1;exitY=0.5;exitDx=0;exitDy=0;entryX=0;entryY=0.5;entryDx=0;entryDy=0;endArrow=none;startFill=0;strokeColor=#3399FF;strokeWidth=6;fontSize=22;" parent="1" source="UiGEefSNBk0QhE1fhSva-129" target="UiGEefSNBk0QhE1fhSva-131" edge="1">
          <mxGeometry relative="1" as="geometry" />
        </mxCell>
        <mxCell id="UiGEefSNBk0QhE1fhSva-138" style="edgeStyle=orthogonalEdgeStyle;rounded=0;orthogonalLoop=1;jettySize=auto;html=1;endArrow=none;endFill=1;strokeColor=#3399FF;strokeWidth=6;startFill=0;fontSize=22;" parent="1" source="UiGEefSNBk0QhE1fhSva-110" edge="1">
          <mxGeometry relative="1" as="geometry">
            <mxPoint x="760.2043750000003" y="596.1882608695655" as="targetPoint" />
            <Array as="points">
              <mxPoint x="648" y="595.79" />
            </Array>
          </mxGeometry>
        </mxCell>
        <mxCell id="UiGEefSNBk0QhE1fhSva-139" style="edgeStyle=orthogonalEdgeStyle;rounded=0;orthogonalLoop=1;jettySize=auto;html=1;endArrow=none;endFill=1;strokeColor=#3399FF;strokeWidth=2;startFill=0;entryX=1;entryY=0.463;entryDx=0;entryDy=0;entryPerimeter=0;fontSize=22;" parent="1" target="UiGEefSNBk0QhE1fhSva-185" edge="1">
          <mxGeometry relative="1" as="geometry">
            <mxPoint x="1579.775234375" y="595.2974239130431" as="sourcePoint" />
            <mxPoint x="1686.2481790624997" y="594.4956706521739" as="targetPoint" />
          </mxGeometry>
        </mxCell>
        <mxCell id="UiGEefSNBk0QhE1fhSva-140" style="edgeStyle=orthogonalEdgeStyle;rounded=0;orthogonalLoop=1;jettySize=auto;html=1;endArrow=classic;endFill=1;strokeColor=#3399FF;strokeWidth=6;fontSize=22;" parent="1" source="UiGEefSNBk0QhE1fhSva-134" target="UiGEefSNBk0QhE1fhSva-136" edge="1">
          <mxGeometry relative="1" as="geometry" />
        </mxCell>
        <mxCell id="UiGEefSNBk0QhE1fhSva-142" style="edgeStyle=orthogonalEdgeStyle;fontSize=22;html=1;endArrow=classic;endFill=1;strokeColor=#3399FF;strokeWidth=3;rounded=0;curved=0;entryX=0.396;entryY=0.986;entryDx=0;entryDy=0;entryPerimeter=0;" parent="1" target="UiGEefSNBk0QhE1fhSva-123" edge="1">
          <mxGeometry relative="1" as="geometry">
            <mxPoint x="625.6738281249999" y="596.188260869565" as="sourcePoint" />
            <mxPoint x="2829.2370106249996" y="668.3169989395547" as="targetPoint" />
            <Array as="points">
              <mxPoint x="626" y="880.79" />
              <mxPoint x="2844" y="880.79" />
            </Array>
          </mxGeometry>
        </mxCell>
        <mxCell id="UiGEefSNBk0QhE1fhSva-99" value="" style="rounded=0;whiteSpace=wrap;html=1;fillColor=#FFFFFF;strokeColor=#6c8ebf;fontSize=22;" parent="1" vertex="1">
          <mxGeometry x="3019.0800000000004" y="497.2399999999998" width="534.5" height="210.14" as="geometry" />
        </mxCell>
        <mxCell id="UiGEefSNBk0QhE1fhSva-107" value="Generator" style="text;html=1;strokeColor=none;fillColor=none;align=left;verticalAlign=middle;whiteSpace=wrap;rounded=0;fontSize=22;fontColor=#FF0000;fontStyle=1" parent="1" vertex="1">
          <mxGeometry x="101.50999999999999" y="97.31695652173912" width="356.33515625" height="106.90043478260864" as="geometry" />
        </mxCell>
        <mxCell id="UiGEefSNBk0QhE1fhSva-123" value="&lt;font style=&quot;font-size: 20px;&quot;&gt;Elementwise Sum&lt;/font&gt;" style="rounded=0;whiteSpace=wrap;html=1;fillColor=#d5e8d4;strokeColor=#82b366;align=center;verticalAlign=middle;fontSize=22;" parent="1" vertex="1">
          <mxGeometry x="2800.0047656249994" y="533.2578260869564" width="109.98500000000001" height="126.93531283138918" as="geometry" />
        </mxCell>
        <mxCell id="UiGEefSNBk0QhE1fhSva-126" value="Conv" style="rounded=0;whiteSpace=wrap;html=1;fillColor=#dae8fc;strokeColor=#6c8ebf;align=center;verticalAlign=middle;fontSize=22;" parent="1" vertex="1">
          <mxGeometry x="3054.7164062499996" y="532.8778260869562" width="109.98500000000001" height="126.93531283138918" as="geometry" />
        </mxCell>
        <mxCell id="UiGEefSNBk0QhE1fhSva-127" value="&lt;font style=&quot;font-size: 20px;&quot;&gt;PixelShuffler X2&lt;/font&gt;" style="rounded=0;whiteSpace=wrap;html=1;fillColor=#b0e3ab;strokeColor=#548235;align=center;verticalAlign=middle;fontSize=22;" parent="1" vertex="1">
          <mxGeometry x="3197.25046875" y="532.8778260869562" width="109.98500000000001" height="126.93531283138918" as="geometry" />
        </mxCell>
        <mxCell id="UiGEefSNBk0QhE1fhSva-129" value="PReLU" style="rounded=0;whiteSpace=wrap;html=1;fillColor=#fff2cc;strokeColor=#d6b656;align=center;verticalAlign=middle;fontSize=22;" parent="1" vertex="1">
          <mxGeometry x="3375.418046875" y="532.8778260869562" width="109.98500000000001" height="126.93531283138918" as="geometry" />
        </mxCell>
        <mxCell id="UiGEefSNBk0QhE1fhSva-130" value="k3n256s1" style="text;html=1;strokeColor=none;fillColor=none;align=center;verticalAlign=middle;whiteSpace=wrap;rounded=0;fontSize=22;" parent="1" vertex="1">
          <mxGeometry x="2894.3655859374994" y="443.7941304347826" width="463.23570312499993" height="71.2669565217391" as="geometry" />
        </mxCell>
        <mxCell id="UiGEefSNBk0QhE1fhSva-131" value="" style="rounded=0;whiteSpace=wrap;html=1;fillColor=#FFFFFF;strokeColor=#6c8ebf;fontSize=22;" parent="1" vertex="1">
          <mxGeometry x="3589.2200000000003" y="497.2399999999998" width="213.8" height="200.14" as="geometry" />
        </mxCell>
        <mxCell id="UiGEefSNBk0QhE1fhSva-132" value="" style="rounded=0;whiteSpace=wrap;html=1;fillColor=#b0e3ab;strokeColor=#548235;fontSize=22;" parent="1" vertex="1">
          <mxGeometry x="3669.3945507812505" y="532.8778260869562" width="53.4502734375" height="126.93531283138918" as="geometry" />
        </mxCell>
        <mxCell id="UiGEefSNBk0QhE1fhSva-133" value="" style="rounded=0;whiteSpace=wrap;html=1;fillColor=#fff2cc;strokeColor=#d6b656;fontSize=22;" parent="1" vertex="1">
          <mxGeometry x="3722.844824218749" y="532.8778260869562" width="53.4502734375" height="126.93531283138918" as="geometry" />
        </mxCell>
        <mxCell id="UiGEefSNBk0QhE1fhSva-134" value="Conv" style="rounded=0;whiteSpace=wrap;html=1;fillColor=#dae8fc;strokeColor=#6c8ebf;align=center;verticalAlign=middle;fontSize=22;" parent="1" vertex="1">
          <mxGeometry x="3897.6972656250005" y="532.8778260869562" width="109.98500000000001" height="126.93531283138918" as="geometry" />
        </mxCell>
        <mxCell id="UiGEefSNBk0QhE1fhSva-135" value="k3n1s1" style="text;html=1;strokeColor=none;fillColor=none;align=center;verticalAlign=middle;whiteSpace=wrap;rounded=0;fontSize=22;" parent="1" vertex="1">
          <mxGeometry x="3863.6072656250003" y="443.7941304347826" width="178.167578125" height="71.2669565217391" as="geometry" />
        </mxCell>
        <mxCell id="UiGEefSNBk0QhE1fhSva-136" value="&lt;i&gt;I&lt;sup&gt;SR&lt;/sup&gt;&lt;/i&gt;" style="shape=rectangle;whiteSpace=wrap;html=1;strokeColor=#a1c7ff;fillColor=#FEFFE8;fontSize=22;verticalAlign=middle;align=center;" parent="1" vertex="1">
          <mxGeometry x="4109.998906249999" y="532.8778260869562" width="131.98200000000003" height="126.93531283138918" as="geometry" />
        </mxCell>
        <mxCell id="UiGEefSNBk0QhE1fhSva-141" value="skip connection" style="text;html=1;strokeColor=none;fillColor=none;align=center;verticalAlign=middle;whiteSpace=wrap;rounded=0;fontSize=23;fontColor=#0000FF;" parent="1" vertex="1">
          <mxGeometry x="1401.6076562499998" y="952.5230434782607" width="356.33515625" height="71.2669565217391" as="geometry" />
        </mxCell>
        <mxCell id="UiGEefSNBk0QhE1fhSva-143" value="upsampling" style="text;html=1;strokeColor=none;fillColor=none;align=center;verticalAlign=middle;whiteSpace=wrap;rounded=0;fontSize=23;fontColor=#0000FF;" parent="1" vertex="1">
          <mxGeometry x="2830.0012500000003" y="283.8234782608697" width="356.33515625" height="71.2669565217391" as="geometry" />
        </mxCell>
        <mxCell id="UiGEefSNBk0QhE1fhSva-176" value="" style="rounded=0;whiteSpace=wrap;html=1;fillColor=#CCE5FF;strokeColor=#6C8EBF;fontSize=22;" parent="1" vertex="1">
          <mxGeometry x="3615.9442773437495" y="532.8778260869562" width="53.4502734375" height="126.93531283138918" as="geometry" />
        </mxCell>
        <mxCell id="UiGEefSNBk0QhE1fhSva-182" value="" style="shape=curlyBracket;whiteSpace=wrap;html=1;rounded=1;flipH=1;labelPosition=right;verticalLabelPosition=middle;align=left;verticalAlign=middle;rotation=-90;strokeColor=#3399FF;fontSize=22;strokeWidth=4;" parent="1" vertex="1">
          <mxGeometry x="1680.06" y="-680" width="71.27" height="2017.87" as="geometry" />
        </mxCell>
        <mxCell id="UiGEefSNBk0QhE1fhSva-120" value="Residual Whole Map Attention Blocks" style="text;html=1;strokeColor=none;fillColor=none;align=center;verticalAlign=middle;whiteSpace=wrap;rounded=0;fontSize=23;fontColor=#0000FF;" parent="1" vertex="1">
          <mxGeometry x="1550" y="204.22000000000003" width="300" height="71.27" as="geometry" />
        </mxCell>
        <mxCell id="UiGEefSNBk0QhE1fhSva-220" value="" style="group" parent="1" vertex="1" connectable="0">
          <mxGeometry x="635" y="443.78999999999996" width="1040" height="350" as="geometry" />
        </mxCell>
        <mxCell id="UiGEefSNBk0QhE1fhSva-185" value="" style="rounded=0;whiteSpace=wrap;html=1;fillColor=#FFFFFF;strokeColor=#6c8ebf;fontSize=22;" parent="UiGEefSNBk0QhE1fhSva-220" vertex="1">
          <mxGeometry x="38.96" y="60" width="1001.04" height="190" as="geometry" />
        </mxCell>
        <mxCell id="UiGEefSNBk0QhE1fhSva-203" style="edgeStyle=orthogonalEdgeStyle;rounded=0;orthogonalLoop=1;jettySize=auto;html=1;exitX=0;exitY=0.5;exitDx=0;exitDy=0;strokeColor=#3399FF;startArrow=none;startFill=0;endArrow=none;strokeWidth=6;" parent="UiGEefSNBk0QhE1fhSva-220" source="UiGEefSNBk0QhE1fhSva-186" edge="1">
          <mxGeometry relative="1" as="geometry">
            <mxPoint x="39" y="152.8048780487805" as="targetPoint" />
            <Array as="points">
              <mxPoint x="55.714285714285715" y="152.8048780487805" />
              <mxPoint x="55.714285714285715" y="152.8048780487805" />
            </Array>
          </mxGeometry>
        </mxCell>
        <mxCell id="UiGEefSNBk0QhE1fhSva-186" value="Conv" style="rounded=0;whiteSpace=wrap;html=1;fillColor=#dae8fc;strokeColor=#6c8ebf;align=center;verticalAlign=middle;fontSize=22;" parent="UiGEefSNBk0QhE1fhSva-220" vertex="1">
          <mxGeometry x="71.25791852678574" y="89.45190880169666" width="92.04986607142858" height="126.93531283138918" as="geometry" />
        </mxCell>
        <mxCell id="UiGEefSNBk0QhE1fhSva-188" value="PReLU" style="rounded=0;whiteSpace=wrap;html=1;fillColor=#fff2cc;strokeColor=#d6b656;align=center;verticalAlign=middle;fontSize=22;" parent="UiGEefSNBk0QhE1fhSva-220" vertex="1">
          <mxGeometry x="163.3058984375" y="89.45190880169666" width="92.04986607142858" height="126.93531283138918" as="geometry" />
        </mxCell>
        <mxCell id="UiGEefSNBk0QhE1fhSva-198" style="edgeStyle=orthogonalEdgeStyle;rounded=0;orthogonalLoop=1;jettySize=auto;html=1;entryX=0;entryY=0.5;entryDx=0;entryDy=0;endArrow=none;startFill=0;strokeColor=#3399FF;strokeWidth=6;" parent="UiGEefSNBk0QhE1fhSva-220" source="UiGEefSNBk0QhE1fhSva-189" target="UiGEefSNBk0QhE1fhSva-195" edge="1">
          <mxGeometry relative="1" as="geometry" />
        </mxCell>
        <mxCell id="UiGEefSNBk0QhE1fhSva-201" style="edgeStyle=orthogonalEdgeStyle;rounded=0;orthogonalLoop=1;jettySize=auto;html=1;exitX=0.5;exitY=1;exitDx=0;exitDy=0;entryX=0.5;entryY=1;entryDx=0;entryDy=0;strokeColor=#3399FF;strokeWidth=3;" parent="UiGEefSNBk0QhE1fhSva-220" source="UiGEefSNBk0QhE1fhSva-189" target="UiGEefSNBk0QhE1fhSva-197" edge="1">
          <mxGeometry relative="1" as="geometry">
            <Array as="points">
              <mxPoint x="300.85714285714283" y="239.02439024390242" />
              <mxPoint x="721.5" y="239.02439024390242" />
            </Array>
          </mxGeometry>
        </mxCell>
        <mxCell id="UiGEefSNBk0QhE1fhSva-189" value="" style="rounded=0;whiteSpace=wrap;html=1;fillColor=#dae8fc;strokeColor=#6c8ebf;align=center;verticalAlign=middle;fontSize=22;" parent="UiGEefSNBk0QhE1fhSva-220" vertex="1">
          <mxGeometry x="255.35576450892844" y="89.45190880169666" width="92.04986607142858" height="126.93531283138918" as="geometry" />
        </mxCell>
        <mxCell id="UiGEefSNBk0QhE1fhSva-206" style="edgeStyle=orthogonalEdgeStyle;rounded=0;orthogonalLoop=1;jettySize=auto;html=1;exitX=1;exitY=0.5;exitDx=0;exitDy=0;strokeWidth=2;strokeColor=#3399FF;endArrow=none;startFill=0;" parent="UiGEefSNBk0QhE1fhSva-220" source="UiGEefSNBk0QhE1fhSva-191" edge="1">
          <mxGeometry relative="1" as="geometry">
            <mxPoint x="1040" y="152.8048780487805" as="targetPoint" />
            <Array as="points">
              <mxPoint x="1021.4285714285714" y="152.8048780487805" />
              <mxPoint x="1021.4285714285714" y="152.8048780487805" />
            </Array>
          </mxGeometry>
        </mxCell>
        <mxCell id="UiGEefSNBk0QhE1fhSva-191" value="&lt;font style=&quot;font-size: 20px;&quot;&gt;Elementwise Sum&lt;/font&gt;" style="rounded=0;whiteSpace=wrap;html=1;fillColor=#d5e8d4;strokeColor=#82b366;align=center;verticalAlign=middle;fontSize=22;" parent="UiGEefSNBk0QhE1fhSva-220" vertex="1">
          <mxGeometry x="864.5808872767857" y="89.45190880169666" width="115.06233258928572" height="126.93531283138918" as="geometry" />
        </mxCell>
        <mxCell id="UiGEefSNBk0QhE1fhSva-192" value="k3n64s1" style="text;html=1;strokeColor=none;fillColor=none;align=center;verticalAlign=middle;whiteSpace=wrap;rounded=0;fontSize=22;" parent="UiGEefSNBk0QhE1fhSva-220" vertex="1">
          <mxGeometry width="245.67214285714286" height="42.31585365853659" as="geometry" />
        </mxCell>
        <mxCell id="UiGEefSNBk0QhE1fhSva-193" value="k3n64s1" style="text;html=1;strokeColor=none;fillColor=none;align=center;verticalAlign=middle;whiteSpace=wrap;rounded=0;fontSize=22;" parent="UiGEefSNBk0QhE1fhSva-220" vertex="1">
          <mxGeometry x="167.14213169642844" width="276.14959821428573" height="42.3117709437964" as="geometry" />
        </mxCell>
        <mxCell id="UiGEefSNBk0QhE1fhSva-199" style="edgeStyle=orthogonalEdgeStyle;rounded=0;orthogonalLoop=1;jettySize=auto;html=1;exitX=1;exitY=0.5;exitDx=0;exitDy=0;entryX=0;entryY=0.5;entryDx=0;entryDy=0;strokeColor=#3399FF;endArrow=classic;startFill=0;strokeWidth=6;endFill=1;" parent="UiGEefSNBk0QhE1fhSva-220" source="UiGEefSNBk0QhE1fhSva-194" target="UiGEefSNBk0QhE1fhSva-197" edge="1">
          <mxGeometry relative="1" as="geometry" />
        </mxCell>
        <mxCell id="UiGEefSNBk0QhE1fhSva-194" value="&lt;font style=&quot;font-size: 22px;&quot;&gt;Sigmoid&lt;/font&gt;" style="rounded=0;whiteSpace=wrap;html=1;fillColor=#99FF99;strokeColor=#6c8ebf;align=center;verticalAlign=middle;" parent="UiGEefSNBk0QhE1fhSva-220" vertex="1">
          <mxGeometry x="506.36857142857144" y="89.45487804878051" width="92.04986607142858" height="126.93531283138918" as="geometry" />
        </mxCell>
        <mxCell id="UiGEefSNBk0QhE1fhSva-195" value="" style="rounded=0;whiteSpace=wrap;html=1;fillColor=#dae8fc;strokeColor=#6c8ebf;align=center;verticalAlign=middle;fontSize=22;" parent="UiGEefSNBk0QhE1fhSva-220" vertex="1">
          <mxGeometry x="413.8543470982143" y="89.45190880169666" width="92.04986607142858" height="126.93531283138918" as="geometry" />
        </mxCell>
        <mxCell id="UiGEefSNBk0QhE1fhSva-196" value="k1n64s1" style="text;html=1;strokeColor=none;fillColor=none;align=center;verticalAlign=middle;whiteSpace=wrap;rounded=0;fontSize=22;" parent="UiGEefSNBk0QhE1fhSva-220" vertex="1">
          <mxGeometry x="322.7807142857142" width="276.14959821428573" height="42.3117709437964" as="geometry" />
        </mxCell>
        <mxCell id="UiGEefSNBk0QhE1fhSva-200" style="edgeStyle=orthogonalEdgeStyle;rounded=0;orthogonalLoop=1;jettySize=auto;html=1;entryX=0;entryY=0.5;entryDx=0;entryDy=0;strokeColor=#3399FF;endArrow=classic;startFill=0;strokeWidth=6;endFill=1;" parent="UiGEefSNBk0QhE1fhSva-220" source="UiGEefSNBk0QhE1fhSva-197" target="UiGEefSNBk0QhE1fhSva-191" edge="1">
          <mxGeometry relative="1" as="geometry" />
        </mxCell>
        <mxCell id="UiGEefSNBk0QhE1fhSva-197" value="&lt;font style=&quot;font-size: 20px;&quot;&gt;Elementwise Multi&lt;/font&gt;" style="rounded=0;whiteSpace=wrap;html=1;fillColor=#CCFFCC;strokeColor=#82b366;align=center;verticalAlign=middle;fontSize=22;" parent="UiGEefSNBk0QhE1fhSva-220" vertex="1">
          <mxGeometry x="663.9285714285714" y="89.45487804878051" width="115.06233258928572" height="126.93531283138918" as="geometry" />
        </mxCell>
        <mxCell id="UiGEefSNBk0QhE1fhSva-39" value="H x W x N" style="text;html=1;align=center;verticalAlign=middle;resizable=0;points=[];autosize=1;strokeColor=none;fillColor=none;fontSize=20;" parent="UiGEefSNBk0QhE1fhSva-220" vertex="1">
          <mxGeometry x="443.29571428571427" y="240.00439024390244" width="110" height="40" as="geometry" />
        </mxCell>
        <mxCell id="UiGEefSNBk0QhE1fhSva-205" style="edgeStyle=orthogonalEdgeStyle;rounded=0;orthogonalLoop=1;jettySize=auto;html=1;endArrow=none;startFill=1;strokeColor=#3399FF;startArrow=classic;exitX=0.5;exitY=1;exitDx=0;exitDy=0;strokeWidth=3;" parent="UiGEefSNBk0QhE1fhSva-220" source="UiGEefSNBk0QhE1fhSva-191" edge="1">
          <mxGeometry relative="1" as="geometry">
            <mxPoint x="925.7857142857142" y="61.46341463414634" as="sourcePoint" />
            <mxPoint x="25" y="154" as="targetPoint" />
            <Array as="points">
              <mxPoint x="922" y="350" />
              <mxPoint x="25" y="350" />
            </Array>
          </mxGeometry>
        </mxCell>
        <mxCell id="UiGEefSNBk0QhE1fhSva-137" style="edgeStyle=orthogonalEdgeStyle;rounded=0;orthogonalLoop=1;jettySize=auto;html=1;endArrow=none;endFill=1;strokeColor=#3399FF;strokeWidth=6;startFill=0;fontSize=22;" parent="1" source="UiGEefSNBk0QhE1fhSva-108" target="UiGEefSNBk0QhE1fhSva-109" edge="1">
          <mxGeometry relative="1" as="geometry" />
        </mxCell>
        <mxCell id="UiGEefSNBk0QhE1fhSva-108" value="&lt;i&gt;I&lt;sup&gt;LR&lt;/sup&gt;&lt;/i&gt;" style="shape=rectangle;whiteSpace=wrap;html=1;strokeColor=#a1c7ff;fillColor=#FFFFFF;fontSize=22;verticalAlign=middle;align=center;" parent="1" vertex="1">
          <mxGeometry x="140" y="528.7841176470588" width="131.98200000000003" height="126.93531283138918" as="geometry" />
        </mxCell>
        <mxCell id="UiGEefSNBk0QhE1fhSva-109" value="Conv" style="rounded=0;whiteSpace=wrap;html=1;fillColor=#dae8fc;strokeColor=#6c8ebf;align=center;verticalAlign=middle;fontSize=22;" parent="1" vertex="1">
          <mxGeometry x="359.97" y="528.7841176470588" width="109.98500000000001" height="126.93531283138918" as="geometry" />
        </mxCell>
        <mxCell id="UiGEefSNBk0QhE1fhSva-110" value="PReLU" style="rounded=0;whiteSpace=wrap;html=1;fillColor=#fff2cc;strokeColor=#d6b656;align=center;verticalAlign=middle;fontSize=22;" parent="1" vertex="1">
          <mxGeometry x="469.9549999999999" y="528.7841176470588" width="109.98500000000001" height="126.93531283138918" as="geometry" />
        </mxCell>
        <mxCell id="UiGEefSNBk0QhE1fhSva-111" value="k9n64s1" style="text;html=1;strokeColor=none;fillColor=none;align=center;verticalAlign=middle;whiteSpace=wrap;rounded=0;fontSize=22;" parent="1" vertex="1">
          <mxGeometry x="315.97600000000006" y="473.78999999999996" width="219.97000000000003" height="43.99529411764709" as="geometry" />
        </mxCell>
        <mxCell id="UiGEefSNBk0QhE1fhSva-231" value="" style="group" parent="1" vertex="1" connectable="0">
          <mxGeometry x="1745" y="458.78999999999996" width="180" height="280" as="geometry" />
        </mxCell>
        <mxCell id="UiGEefSNBk0QhE1fhSva-208" value="" style="rounded=0;whiteSpace=wrap;html=1;fillColor=#FFFFFF;strokeColor=#6c8ebf;fontSize=22;" parent="UiGEefSNBk0QhE1fhSva-231" vertex="1">
          <mxGeometry width="179.99999999999991" height="280" as="geometry" />
        </mxCell>
        <mxCell id="UiGEefSNBk0QhE1fhSva-210" value="" style="rounded=0;whiteSpace=wrap;html=1;fillColor=#fff2cc;strokeColor=#d6b656;fontSize=22;" parent="UiGEefSNBk0QhE1fhSva-231" vertex="1">
          <mxGeometry x="32.06554322027262" y="28.074117647058756" width="17.95413017088649" height="222.43246296342056" as="geometry" />
        </mxCell>
        <mxCell id="UiGEefSNBk0QhE1fhSva-211" value="" style="rounded=0;whiteSpace=wrap;html=1;fillColor=#dae8fc;strokeColor=#6c8ebf;fontSize=22;" parent="UiGEefSNBk0QhE1fhSva-231" vertex="1">
          <mxGeometry x="14.110434782608639" y="28.074117647058756" width="17.95413017088649" height="222.43246296342056" as="geometry" />
        </mxCell>
        <mxCell id="UiGEefSNBk0QhE1fhSva-274" style="edgeStyle=orthogonalEdgeStyle;rounded=0;orthogonalLoop=1;jettySize=auto;html=1;exitX=0.5;exitY=1;exitDx=0;exitDy=0;startArrow=classic;startFill=1;endArrow=none;strokeWidth=3;strokeColor=#3399FF;" parent="UiGEefSNBk0QhE1fhSva-231" source="UiGEefSNBk0QhE1fhSva-212" edge="1">
          <mxGeometry relative="1" as="geometry">
            <mxPoint x="-25" y="139" as="targetPoint" />
            <Array as="points">
              <mxPoint x="152" y="305" />
              <mxPoint x="-25" y="305" />
            </Array>
          </mxGeometry>
        </mxCell>
        <mxCell id="UiGEefSNBk0QhE1fhSva-212" value="" style="rounded=0;whiteSpace=wrap;html=1;fillColor=#d5e8d4;strokeColor=#82b366;fontSize=22;" parent="UiGEefSNBk0QhE1fhSva-231" vertex="1">
          <mxGeometry x="143.16934808998292" y="28.074117647058756" width="17.95413017088649" height="222.43246296342056" as="geometry" />
        </mxCell>
        <mxCell id="UiGEefSNBk0QhE1fhSva-227" style="edgeStyle=orthogonalEdgeStyle;rounded=0;orthogonalLoop=1;jettySize=auto;html=1;exitX=0.5;exitY=1;exitDx=0;exitDy=0;entryX=0.5;entryY=1;entryDx=0;entryDy=0;fontColor=#3399FF;strokeColor=#3399FF;strokeWidth=2;" parent="UiGEefSNBk0QhE1fhSva-231" source="UiGEefSNBk0QhE1fhSva-214" target="UiGEefSNBk0QhE1fhSva-217" edge="1">
          <mxGeometry relative="1" as="geometry">
            <Array as="points">
              <mxPoint x="58.719130434782386" y="263.6035294117646" />
              <mxPoint x="133.84956521739113" y="263.6035294117646" />
            </Array>
          </mxGeometry>
        </mxCell>
        <mxCell id="UiGEefSNBk0QhE1fhSva-214" value="" style="rounded=0;whiteSpace=wrap;html=1;fillColor=#dae8fc;strokeColor=#6c8ebf;fontSize=22;" parent="UiGEefSNBk0QhE1fhSva-231" vertex="1">
          <mxGeometry x="50.01652173913032" y="28.074117647058756" width="17.953043478260863" height="222.35294117647055" as="geometry" />
        </mxCell>
        <mxCell id="UiGEefSNBk0QhE1fhSva-215" value="" style="rounded=0;whiteSpace=wrap;html=1;fillColor=#dae8fc;strokeColor=#6c8ebf;fontSize=22;" parent="UiGEefSNBk0QhE1fhSva-231" vertex="1">
          <mxGeometry x="78.26065788903601" y="27.912242918932407" width="17.95413017088649" height="222.43246296342056" as="geometry" />
        </mxCell>
        <mxCell id="UiGEefSNBk0QhE1fhSva-216" value="" style="rounded=0;whiteSpace=wrap;html=1;fillColor=#99FF99;strokeColor=#6c8ebf;fontSize=22;" parent="UiGEefSNBk0QhE1fhSva-231" vertex="1">
          <mxGeometry x="96.21478805992227" y="27.912242918932407" width="17.95413017088649" height="222.43246296342056" as="geometry" />
        </mxCell>
        <mxCell id="UiGEefSNBk0QhE1fhSva-225" style="edgeStyle=orthogonalEdgeStyle;rounded=0;orthogonalLoop=1;jettySize=auto;html=1;exitX=1;exitY=0.5;exitDx=0;exitDy=0;entryX=0;entryY=0.5;entryDx=0;entryDy=0;strokeWidth=2;strokeColor=#3399FF;" parent="UiGEefSNBk0QhE1fhSva-231" source="UiGEefSNBk0QhE1fhSva-217" target="UiGEefSNBk0QhE1fhSva-212" edge="1">
          <mxGeometry relative="1" as="geometry" />
        </mxCell>
        <mxCell id="UiGEefSNBk0QhE1fhSva-217" value="" style="rounded=0;whiteSpace=wrap;html=1;fillColor=#CCFFCC;strokeColor=#82b366;fontSize=22;" parent="UiGEefSNBk0QhE1fhSva-231" vertex="1">
          <mxGeometry x="125.21773707125719" y="27.912242918932407" width="17.95413017088649" height="222.43246296342056" as="geometry" />
        </mxCell>
        <mxCell id="UiGEefSNBk0QhE1fhSva-233" style="edgeStyle=orthogonalEdgeStyle;rounded=0;orthogonalLoop=1;jettySize=auto;html=1;exitX=1;exitY=0.489;exitDx=0;exitDy=0;entryX=0.003;entryY=0.492;entryDx=0;entryDy=0;exitPerimeter=0;strokeWidth=6;strokeColor=#3399FF;entryPerimeter=0;endArrow=none;startFill=0;" parent="1" source="UiGEefSNBk0QhE1fhSva-185" target="UiGEefSNBk0QhE1fhSva-208" edge="1">
          <mxGeometry relative="1" as="geometry" />
        </mxCell>
        <mxCell id="UiGEefSNBk0QhE1fhSva-235" value="" style="group" parent="1" vertex="1" connectable="0">
          <mxGeometry x="2006" y="458.78999999999996" width="180" height="280" as="geometry" />
        </mxCell>
        <mxCell id="UiGEefSNBk0QhE1fhSva-236" value="" style="rounded=0;whiteSpace=wrap;html=1;fillColor=#FFFFFF;strokeColor=#6c8ebf;fontSize=22;" parent="UiGEefSNBk0QhE1fhSva-235" vertex="1">
          <mxGeometry width="179.99999999999991" height="280" as="geometry" />
        </mxCell>
        <mxCell id="UiGEefSNBk0QhE1fhSva-237" value="" style="rounded=0;whiteSpace=wrap;html=1;fillColor=#fff2cc;strokeColor=#d6b656;fontSize=22;" parent="UiGEefSNBk0QhE1fhSva-235" vertex="1">
          <mxGeometry x="32.06554322027262" y="28.074117647058756" width="17.95413017088649" height="222.43246296342056" as="geometry" />
        </mxCell>
        <mxCell id="UiGEefSNBk0QhE1fhSva-238" value="" style="rounded=0;whiteSpace=wrap;html=1;fillColor=#dae8fc;strokeColor=#6c8ebf;fontSize=22;" parent="UiGEefSNBk0QhE1fhSva-235" vertex="1">
          <mxGeometry x="14.110434782608639" y="28.074117647058756" width="17.95413017088649" height="222.43246296342056" as="geometry" />
        </mxCell>
        <mxCell id="UiGEefSNBk0QhE1fhSva-276" style="edgeStyle=orthogonalEdgeStyle;rounded=0;orthogonalLoop=1;jettySize=auto;html=1;exitX=0.5;exitY=1;exitDx=0;exitDy=0;endArrow=none;startFill=1;startArrow=classic;strokeWidth=3;strokeColor=#3399FF;" parent="UiGEefSNBk0QhE1fhSva-235" source="UiGEefSNBk0QhE1fhSva-239" edge="1">
          <mxGeometry relative="1" as="geometry">
            <mxPoint x="-26" y="139" as="targetPoint" />
            <Array as="points">
              <mxPoint x="152" y="305" />
              <mxPoint x="-26" y="305" />
            </Array>
          </mxGeometry>
        </mxCell>
        <mxCell id="UiGEefSNBk0QhE1fhSva-239" value="" style="rounded=0;whiteSpace=wrap;html=1;fillColor=#d5e8d4;strokeColor=#82b366;fontSize=22;" parent="UiGEefSNBk0QhE1fhSva-235" vertex="1">
          <mxGeometry x="143.16934808998292" y="28.074117647058756" width="17.95413017088649" height="222.43246296342056" as="geometry" />
        </mxCell>
        <mxCell id="UiGEefSNBk0QhE1fhSva-240" style="edgeStyle=orthogonalEdgeStyle;rounded=0;orthogonalLoop=1;jettySize=auto;html=1;exitX=0.5;exitY=1;exitDx=0;exitDy=0;entryX=0.5;entryY=1;entryDx=0;entryDy=0;fontColor=#3399FF;strokeColor=#3399FF;strokeWidth=2;" parent="UiGEefSNBk0QhE1fhSva-235" source="UiGEefSNBk0QhE1fhSva-241" target="UiGEefSNBk0QhE1fhSva-245" edge="1">
          <mxGeometry relative="1" as="geometry">
            <Array as="points">
              <mxPoint x="58.719130434782386" y="263.6035294117646" />
              <mxPoint x="133.84956521739113" y="263.6035294117646" />
            </Array>
          </mxGeometry>
        </mxCell>
        <mxCell id="UiGEefSNBk0QhE1fhSva-241" value="" style="rounded=0;whiteSpace=wrap;html=1;fillColor=#dae8fc;strokeColor=#6c8ebf;fontSize=22;" parent="UiGEefSNBk0QhE1fhSva-235" vertex="1">
          <mxGeometry x="50.01652173913032" y="28.074117647058756" width="17.953043478260863" height="222.35294117647055" as="geometry" />
        </mxCell>
        <mxCell id="UiGEefSNBk0QhE1fhSva-242" value="" style="rounded=0;whiteSpace=wrap;html=1;fillColor=#dae8fc;strokeColor=#6c8ebf;fontSize=22;" parent="UiGEefSNBk0QhE1fhSva-235" vertex="1">
          <mxGeometry x="78.26065788903601" y="27.912242918932407" width="17.95413017088649" height="222.43246296342056" as="geometry" />
        </mxCell>
        <mxCell id="UiGEefSNBk0QhE1fhSva-243" value="" style="rounded=0;whiteSpace=wrap;html=1;fillColor=#99FF99;strokeColor=#6c8ebf;fontSize=22;" parent="UiGEefSNBk0QhE1fhSva-235" vertex="1">
          <mxGeometry x="96.21478805992227" y="27.912242918932407" width="17.95413017088649" height="222.43246296342056" as="geometry" />
        </mxCell>
        <mxCell id="UiGEefSNBk0QhE1fhSva-244" style="edgeStyle=orthogonalEdgeStyle;rounded=0;orthogonalLoop=1;jettySize=auto;html=1;exitX=1;exitY=0.5;exitDx=0;exitDy=0;entryX=0;entryY=0.5;entryDx=0;entryDy=0;strokeWidth=2;strokeColor=#3399FF;" parent="UiGEefSNBk0QhE1fhSva-235" source="UiGEefSNBk0QhE1fhSva-245" target="UiGEefSNBk0QhE1fhSva-239" edge="1">
          <mxGeometry relative="1" as="geometry" />
        </mxCell>
        <mxCell id="UiGEefSNBk0QhE1fhSva-245" value="" style="rounded=0;whiteSpace=wrap;html=1;fillColor=#CCFFCC;strokeColor=#82b366;fontSize=22;" parent="UiGEefSNBk0QhE1fhSva-235" vertex="1">
          <mxGeometry x="125.21773707125719" y="27.912242918932407" width="17.95413017088649" height="222.43246296342056" as="geometry" />
        </mxCell>
        <mxCell id="UiGEefSNBk0QhE1fhSva-246" value="" style="group" parent="1" vertex="1" connectable="0">
          <mxGeometry x="2255" y="458.78999999999996" width="180" height="280" as="geometry" />
        </mxCell>
        <mxCell id="UiGEefSNBk0QhE1fhSva-247" value="" style="rounded=0;whiteSpace=wrap;html=1;fillColor=#FFFFFF;strokeColor=#6c8ebf;fontSize=22;" parent="UiGEefSNBk0QhE1fhSva-246" vertex="1">
          <mxGeometry width="179.99999999999991" height="280" as="geometry" />
        </mxCell>
        <mxCell id="UiGEefSNBk0QhE1fhSva-248" value="" style="rounded=0;whiteSpace=wrap;html=1;fillColor=#fff2cc;strokeColor=#d6b656;fontSize=22;" parent="UiGEefSNBk0QhE1fhSva-246" vertex="1">
          <mxGeometry x="32.06554322027262" y="28.074117647058756" width="17.95413017088649" height="222.43246296342056" as="geometry" />
        </mxCell>
        <mxCell id="UiGEefSNBk0QhE1fhSva-249" value="" style="rounded=0;whiteSpace=wrap;html=1;fillColor=#dae8fc;strokeColor=#6c8ebf;fontSize=22;" parent="UiGEefSNBk0QhE1fhSva-246" vertex="1">
          <mxGeometry x="14.110434782608639" y="28.074117647058756" width="17.95413017088649" height="222.43246296342056" as="geometry" />
        </mxCell>
        <mxCell id="UiGEefSNBk0QhE1fhSva-250" value="" style="rounded=0;whiteSpace=wrap;html=1;fillColor=#d5e8d4;strokeColor=#82b366;fontSize=22;" parent="UiGEefSNBk0QhE1fhSva-246" vertex="1">
          <mxGeometry x="143.16934808998292" y="28.074117647058756" width="17.95413017088649" height="222.43246296342056" as="geometry" />
        </mxCell>
        <mxCell id="UiGEefSNBk0QhE1fhSva-251" style="edgeStyle=orthogonalEdgeStyle;rounded=0;orthogonalLoop=1;jettySize=auto;html=1;exitX=0.5;exitY=1;exitDx=0;exitDy=0;entryX=0.5;entryY=1;entryDx=0;entryDy=0;fontColor=#3399FF;strokeColor=#3399FF;strokeWidth=2;" parent="UiGEefSNBk0QhE1fhSva-246" source="UiGEefSNBk0QhE1fhSva-252" target="UiGEefSNBk0QhE1fhSva-256" edge="1">
          <mxGeometry relative="1" as="geometry">
            <Array as="points">
              <mxPoint x="58.719130434782386" y="263.6035294117646" />
              <mxPoint x="133.84956521739113" y="263.6035294117646" />
            </Array>
          </mxGeometry>
        </mxCell>
        <mxCell id="UiGEefSNBk0QhE1fhSva-252" value="" style="rounded=0;whiteSpace=wrap;html=1;fillColor=#dae8fc;strokeColor=#6c8ebf;fontSize=22;" parent="UiGEefSNBk0QhE1fhSva-246" vertex="1">
          <mxGeometry x="50.01652173913032" y="28.074117647058756" width="17.953043478260863" height="222.35294117647055" as="geometry" />
        </mxCell>
        <mxCell id="UiGEefSNBk0QhE1fhSva-253" value="" style="rounded=0;whiteSpace=wrap;html=1;fillColor=#dae8fc;strokeColor=#6c8ebf;fontSize=22;" parent="UiGEefSNBk0QhE1fhSva-246" vertex="1">
          <mxGeometry x="78.26065788903601" y="27.912242918932407" width="17.95413017088649" height="222.43246296342056" as="geometry" />
        </mxCell>
        <mxCell id="UiGEefSNBk0QhE1fhSva-254" value="" style="rounded=0;whiteSpace=wrap;html=1;fillColor=#99FF99;strokeColor=#6c8ebf;fontSize=22;" parent="UiGEefSNBk0QhE1fhSva-246" vertex="1">
          <mxGeometry x="96.21478805992227" y="27.912242918932407" width="17.95413017088649" height="222.43246296342056" as="geometry" />
        </mxCell>
        <mxCell id="UiGEefSNBk0QhE1fhSva-255" style="edgeStyle=orthogonalEdgeStyle;rounded=0;orthogonalLoop=1;jettySize=auto;html=1;exitX=1;exitY=0.5;exitDx=0;exitDy=0;entryX=0;entryY=0.5;entryDx=0;entryDy=0;strokeWidth=2;strokeColor=#3399FF;" parent="UiGEefSNBk0QhE1fhSva-246" source="UiGEefSNBk0QhE1fhSva-256" target="UiGEefSNBk0QhE1fhSva-250" edge="1">
          <mxGeometry relative="1" as="geometry" />
        </mxCell>
        <mxCell id="UiGEefSNBk0QhE1fhSva-256" value="" style="rounded=0;whiteSpace=wrap;html=1;fillColor=#CCFFCC;strokeColor=#82b366;fontSize=22;" parent="UiGEefSNBk0QhE1fhSva-246" vertex="1">
          <mxGeometry x="125.21773707125719" y="27.912242918932407" width="17.95413017088649" height="222.43246296342056" as="geometry" />
        </mxCell>
        <mxCell id="UiGEefSNBk0QhE1fhSva-257" value="" style="group" parent="1" vertex="1" connectable="0">
          <mxGeometry x="2516" y="458.78999999999996" width="180" height="280" as="geometry" />
        </mxCell>
        <mxCell id="UiGEefSNBk0QhE1fhSva-258" value="" style="rounded=0;whiteSpace=wrap;html=1;fillColor=#FFFFFF;strokeColor=#6c8ebf;fontSize=22;" parent="UiGEefSNBk0QhE1fhSva-257" vertex="1">
          <mxGeometry width="179.99999999999991" height="280" as="geometry" />
        </mxCell>
        <mxCell id="UiGEefSNBk0QhE1fhSva-259" value="" style="rounded=0;whiteSpace=wrap;html=1;fillColor=#fff2cc;strokeColor=#d6b656;fontSize=22;" parent="UiGEefSNBk0QhE1fhSva-257" vertex="1">
          <mxGeometry x="32.06554322027262" y="28.074117647058756" width="17.95413017088649" height="222.43246296342056" as="geometry" />
        </mxCell>
        <mxCell id="UiGEefSNBk0QhE1fhSva-260" value="" style="rounded=0;whiteSpace=wrap;html=1;fillColor=#dae8fc;strokeColor=#6c8ebf;fontSize=22;" parent="UiGEefSNBk0QhE1fhSva-257" vertex="1">
          <mxGeometry x="14.110434782608639" y="28.074117647058756" width="17.95413017088649" height="222.43246296342056" as="geometry" />
        </mxCell>
        <mxCell id="UiGEefSNBk0QhE1fhSva-261" value="" style="rounded=0;whiteSpace=wrap;html=1;fillColor=#d5e8d4;strokeColor=#82b366;fontSize=22;" parent="UiGEefSNBk0QhE1fhSva-257" vertex="1">
          <mxGeometry x="143.16934808998292" y="28.074117647058756" width="17.95413017088649" height="222.43246296342056" as="geometry" />
        </mxCell>
        <mxCell id="UiGEefSNBk0QhE1fhSva-262" style="edgeStyle=orthogonalEdgeStyle;rounded=0;orthogonalLoop=1;jettySize=auto;html=1;exitX=0.5;exitY=1;exitDx=0;exitDy=0;entryX=0.5;entryY=1;entryDx=0;entryDy=0;fontColor=#3399FF;strokeColor=#3399FF;strokeWidth=2;" parent="UiGEefSNBk0QhE1fhSva-257" source="UiGEefSNBk0QhE1fhSva-263" target="UiGEefSNBk0QhE1fhSva-267" edge="1">
          <mxGeometry relative="1" as="geometry">
            <Array as="points">
              <mxPoint x="58.719130434782386" y="263.6035294117646" />
              <mxPoint x="133.84956521739113" y="263.6035294117646" />
            </Array>
          </mxGeometry>
        </mxCell>
        <mxCell id="UiGEefSNBk0QhE1fhSva-263" value="" style="rounded=0;whiteSpace=wrap;html=1;fillColor=#dae8fc;strokeColor=#6c8ebf;fontSize=22;" parent="UiGEefSNBk0QhE1fhSva-257" vertex="1">
          <mxGeometry x="50.01652173913032" y="28.074117647058756" width="17.953043478260863" height="222.35294117647055" as="geometry" />
        </mxCell>
        <mxCell id="UiGEefSNBk0QhE1fhSva-264" value="" style="rounded=0;whiteSpace=wrap;html=1;fillColor=#dae8fc;strokeColor=#6c8ebf;fontSize=22;" parent="UiGEefSNBk0QhE1fhSva-257" vertex="1">
          <mxGeometry x="78.26065788903601" y="27.912242918932407" width="17.95413017088649" height="222.43246296342056" as="geometry" />
        </mxCell>
        <mxCell id="UiGEefSNBk0QhE1fhSva-265" value="" style="rounded=0;whiteSpace=wrap;html=1;fillColor=#99FF99;strokeColor=#6c8ebf;fontSize=22;" parent="UiGEefSNBk0QhE1fhSva-257" vertex="1">
          <mxGeometry x="96.21478805992227" y="27.912242918932407" width="17.95413017088649" height="222.43246296342056" as="geometry" />
        </mxCell>
        <mxCell id="UiGEefSNBk0QhE1fhSva-266" style="edgeStyle=orthogonalEdgeStyle;rounded=0;orthogonalLoop=1;jettySize=auto;html=1;exitX=1;exitY=0.5;exitDx=0;exitDy=0;entryX=0;entryY=0.5;entryDx=0;entryDy=0;strokeWidth=2;strokeColor=#3399FF;" parent="UiGEefSNBk0QhE1fhSva-257" source="UiGEefSNBk0QhE1fhSva-267" target="UiGEefSNBk0QhE1fhSva-261" edge="1">
          <mxGeometry relative="1" as="geometry" />
        </mxCell>
        <mxCell id="UiGEefSNBk0QhE1fhSva-267" value="" style="rounded=0;whiteSpace=wrap;html=1;fillColor=#CCFFCC;strokeColor=#82b366;fontSize=22;" parent="UiGEefSNBk0QhE1fhSva-257" vertex="1">
          <mxGeometry x="125.21773707125719" y="27.912242918932407" width="17.95413017088649" height="222.43246296342056" as="geometry" />
        </mxCell>
        <mxCell id="UiGEefSNBk0QhE1fhSva-268" style="edgeStyle=orthogonalEdgeStyle;rounded=0;orthogonalLoop=1;jettySize=auto;html=1;exitX=1;exitY=0.5;exitDx=0;exitDy=0;entryX=0;entryY=0.5;entryDx=0;entryDy=0;strokeWidth=6;strokeColor=#3399FF;endArrow=none;startFill=0;" parent="1" source="UiGEefSNBk0QhE1fhSva-208" target="UiGEefSNBk0QhE1fhSva-236" edge="1">
          <mxGeometry relative="1" as="geometry" />
        </mxCell>
        <mxCell id="UiGEefSNBk0QhE1fhSva-269" style="edgeStyle=orthogonalEdgeStyle;rounded=0;orthogonalLoop=1;jettySize=auto;html=1;exitX=1;exitY=0.5;exitDx=0;exitDy=0;entryX=0;entryY=0.5;entryDx=0;entryDy=0;strokeWidth=6;strokeColor=#3399FF;endArrow=none;startFill=0;" parent="1" source="UiGEefSNBk0QhE1fhSva-236" target="UiGEefSNBk0QhE1fhSva-247" edge="1">
          <mxGeometry relative="1" as="geometry" />
        </mxCell>
        <mxCell id="UiGEefSNBk0QhE1fhSva-270" style="edgeStyle=orthogonalEdgeStyle;rounded=0;orthogonalLoop=1;jettySize=auto;html=1;exitX=1;exitY=0.5;exitDx=0;exitDy=0;entryX=0;entryY=0.5;entryDx=0;entryDy=0;strokeWidth=6;strokeColor=#3399FF;endArrow=none;startFill=0;" parent="1" source="UiGEefSNBk0QhE1fhSva-247" target="UiGEefSNBk0QhE1fhSva-258" edge="1">
          <mxGeometry relative="1" as="geometry" />
        </mxCell>
        <mxCell id="UiGEefSNBk0QhE1fhSva-271" style="rounded=0;orthogonalLoop=1;jettySize=auto;html=1;entryX=0;entryY=0.5;entryDx=0;entryDy=0;exitX=1;exitY=0.5;exitDx=0;exitDy=0;strokeWidth=6;strokeColor=#3399FF;endArrow=none;startFill=0;" parent="1" source="UiGEefSNBk0QhE1fhSva-258" target="UiGEefSNBk0QhE1fhSva-123" edge="1">
          <mxGeometry relative="1" as="geometry">
            <mxPoint x="2730" y="599.79" as="sourcePoint" />
          </mxGeometry>
        </mxCell>
        <mxCell id="UiGEefSNBk0QhE1fhSva-279" style="edgeStyle=orthogonalEdgeStyle;rounded=0;orthogonalLoop=1;jettySize=auto;html=1;exitX=0.5;exitY=1;exitDx=0;exitDy=0;endArrow=none;startFill=1;startArrow=classic;strokeWidth=3;strokeColor=#3399FF;" parent="1" source="UiGEefSNBk0QhE1fhSva-250" edge="1">
          <mxGeometry relative="1" as="geometry">
            <mxPoint x="2230" y="598.79" as="targetPoint" />
            <mxPoint x="2408" y="715.79" as="sourcePoint" />
            <Array as="points">
              <mxPoint x="2407" y="769.79" />
              <mxPoint x="2230" y="769.79" />
            </Array>
          </mxGeometry>
        </mxCell>
        <mxCell id="UiGEefSNBk0QhE1fhSva-280" style="edgeStyle=orthogonalEdgeStyle;rounded=0;orthogonalLoop=1;jettySize=auto;html=1;exitX=0.5;exitY=1;exitDx=0;exitDy=0;endArrow=none;startFill=1;startArrow=classic;strokeWidth=3;strokeColor=#3399FF;" parent="1" source="UiGEefSNBk0QhE1fhSva-261" edge="1">
          <mxGeometry relative="1" as="geometry">
            <mxPoint x="2490" y="598.79" as="targetPoint" />
            <mxPoint x="2668" y="715.79" as="sourcePoint" />
            <Array as="points">
              <mxPoint x="2668" y="769.79" />
              <mxPoint x="2490" y="769.79" />
            </Array>
          </mxGeometry>
        </mxCell>
        <mxCell id="UiGEefSNBk0QhE1fhSva-281" value="" style="curved=1;endArrow=classic;html=1;rounded=0;entryX=0.5;entryY=0;entryDx=0;entryDy=0;strokeColor=#3399FF;" parent="1" target="UiGEefSNBk0QhE1fhSva-130" edge="1">
          <mxGeometry width="50" height="50" relative="1" as="geometry">
            <mxPoint x="2850" y="443.78999999999996" as="sourcePoint" />
            <mxPoint x="2950" y="373.78999999999996" as="targetPoint" />
            <Array as="points">
              <mxPoint x="2900" y="373.78999999999996" />
              <mxPoint x="3100" y="393.78999999999996" />
            </Array>
          </mxGeometry>
        </mxCell>
        <mxCell id="Cd3ZHtpQ2IgxeuWron2F-132" value="Con-catenation" style="rounded=0;whiteSpace=wrap;html=1;fillColor=#00CED1;strokeColor=#008B8B;strokeWidth=2;fontColor=#FFFFFF;rotation=0;align=center;verticalAlign=middle;" vertex="1" parent="1">
          <mxGeometry x="1200" y="1524.02" width="60" height="280" as="geometry" />
        </mxCell>
        <mxCell id="Cd3ZHtpQ2IgxeuWron2F-264" style="rounded=0;orthogonalLoop=1;jettySize=auto;html=1;exitX=1;exitY=0.5;exitDx=0;exitDy=0;" edge="1" parent="1" source="Cd3ZHtpQ2IgxeuWron2F-188" target="Cd3ZHtpQ2IgxeuWron2F-132">
          <mxGeometry relative="1" as="geometry" />
        </mxCell>
        <mxCell id="Cd3ZHtpQ2IgxeuWron2F-188" value="" style="rounded=0;whiteSpace=wrap;html=1;fillColor=#FFFFFF;strokeColor=#6c8ebf;fontSize=22;" vertex="1" parent="1">
          <mxGeometry x="711.3563288288287" y="1397.8653846153848" width="301.5385585585585" height="183.0769230769231" as="geometry" />
        </mxCell>
        <mxCell id="Cd3ZHtpQ2IgxeuWron2F-189" value="Discriminator" style="text;html=1;strokeColor=none;fillColor=none;align=left;verticalAlign=middle;whiteSpace=wrap;rounded=0;fontSize=22;fontColor=#FF0000;fontStyle=1" vertex="1" parent="1">
          <mxGeometry x="101.50999999999999" y="1140" width="258.4616216216216" height="64.61538461538463" as="geometry" />
        </mxCell>
        <mxCell id="Cd3ZHtpQ2IgxeuWron2F-190" value="&lt;i&gt;I&lt;sup&gt;HR&lt;/sup&gt;&lt;/i&gt;" style="shape=rectangle;whiteSpace=wrap;html=1;strokeColor=#a1c7ff;fillColor=#e1efff;fontSize=22;verticalAlign=middle;align=center;" vertex="1" parent="1">
          <mxGeometry x="140" y="1337.8707692307694" width="129.2308108108108" height="129.23076923076925" as="geometry" />
        </mxCell>
        <mxCell id="Cd3ZHtpQ2IgxeuWron2F-266" style="edgeStyle=orthogonalEdgeStyle;rounded=0;orthogonalLoop=1;jettySize=auto;html=1;exitX=0;exitY=0.5;exitDx=0;exitDy=0;entryX=1;entryY=0.5;entryDx=0;entryDy=0;endArrow=none;startFill=0;strokeColor=#3399FF;strokeWidth=3;" edge="1" parent="1" source="Cd3ZHtpQ2IgxeuWron2F-192" target="Cd3ZHtpQ2IgxeuWron2F-190">
          <mxGeometry relative="1" as="geometry" />
        </mxCell>
        <mxCell id="Cd3ZHtpQ2IgxeuWron2F-192" value="Conv" style="rounded=0;whiteSpace=wrap;html=1;fillColor=#dae8fc;strokeColor=#6c8ebf;align=center;verticalAlign=middle;fontSize=22;" vertex="1" parent="1">
          <mxGeometry x="425.9716216216216" y="1419.4038461538462" width="107.69234234234233" height="129.23076923076925" as="geometry" />
        </mxCell>
        <mxCell id="Cd3ZHtpQ2IgxeuWron2F-193" value="Leaky ReLU" style="rounded=0;whiteSpace=wrap;html=1;fillColor=#fff2cc;strokeColor=#d6b656;align=center;verticalAlign=middle;fontSize=22;" vertex="1" parent="1">
          <mxGeometry x="533.663963963964" y="1419.4038461538462" width="107.69234234234233" height="129.23076923076925" as="geometry" />
        </mxCell>
        <mxCell id="Cd3ZHtpQ2IgxeuWron2F-194" value="k3n64s1" style="text;html=1;strokeColor=none;fillColor=none;align=center;verticalAlign=middle;whiteSpace=wrap;rounded=0;fontSize=22;" vertex="1" parent="1">
          <mxGeometry x="369.9716036036036" y="1624.019230769231" width="215.38468468468466" height="43.07692307692309" as="geometry" />
        </mxCell>
        <mxCell id="Cd3ZHtpQ2IgxeuWron2F-195" value="Conv" style="rounded=0;whiteSpace=wrap;html=1;fillColor=#dae8fc;strokeColor=#6c8ebf;align=center;verticalAlign=middle;fontSize=22;" vertex="1" parent="1">
          <mxGeometry x="732.8947972972971" y="1419.4038461538462" width="86.15387387387386" height="129.23076923076925" as="geometry" />
        </mxCell>
        <mxCell id="Cd3ZHtpQ2IgxeuWron2F-196" value="BN" style="rounded=0;whiteSpace=wrap;html=1;fillColor=#f8c471;strokeColor=#b85450;align=center;verticalAlign=middle;fontSize=22;" vertex="1" parent="1">
          <mxGeometry x="819.048671171171" y="1419.4038461538462" width="64.6154054054054" height="129.23076923076925" as="geometry" />
        </mxCell>
        <mxCell id="Cd3ZHtpQ2IgxeuWron2F-197" value="Leaky ReLU" style="rounded=0;whiteSpace=wrap;html=1;fillColor=#fff2cc;strokeColor=#d6b656;align=center;verticalAlign=middle;fontSize=22;" vertex="1" parent="1">
          <mxGeometry x="883.6640765765765" y="1419.4038461538462" width="107.69234234234233" height="129.23076923076925" as="geometry" />
        </mxCell>
        <mxCell id="Cd3ZHtpQ2IgxeuWron2F-198" value="k3n64s2" style="text;html=1;strokeColor=none;fillColor=none;align=center;verticalAlign=middle;whiteSpace=wrap;rounded=0;fontSize=22;" vertex="1" parent="1">
          <mxGeometry x="628.4332252252252" y="1624.019230769231" width="258.4616216216216" height="43.07692307692309" as="geometry" />
        </mxCell>
        <mxCell id="Cd3ZHtpQ2IgxeuWron2F-199" value="k3n128s1" style="text;html=1;strokeColor=none;fillColor=none;align=center;verticalAlign=middle;whiteSpace=wrap;rounded=0;fontSize=22;" vertex="1" parent="1">
          <mxGeometry x="1300.0018018018018" y="1804.019230769231" width="258.4616216216216" height="43.07692307692309" as="geometry" />
        </mxCell>
        <mxCell id="Cd3ZHtpQ2IgxeuWron2F-200" value="k3n128s2" style="text;html=1;strokeColor=none;fillColor=none;align=center;verticalAlign=middle;whiteSpace=wrap;rounded=0;fontSize=22;" vertex="1" parent="1">
          <mxGeometry x="1450.7710810810809" y="1890.1730769230771" width="258.4616216216216" height="43.07692307692309" as="geometry" />
        </mxCell>
        <mxCell id="Cd3ZHtpQ2IgxeuWron2F-201" value="k3n256s1" style="text;html=1;strokeColor=none;fillColor=none;align=center;verticalAlign=middle;whiteSpace=wrap;rounded=0;fontSize=22;" vertex="1" parent="1">
          <mxGeometry x="1580.0018918918918" y="1804.019230769231" width="258.4616216216216" height="43.07692307692309" as="geometry" />
        </mxCell>
        <mxCell id="Cd3ZHtpQ2IgxeuWron2F-202" value="k3n256s2" style="text;html=1;strokeColor=none;fillColor=none;align=center;verticalAlign=middle;whiteSpace=wrap;rounded=0;fontSize=22;" vertex="1" parent="1">
          <mxGeometry x="1730.771171171171" y="1890.1730769230771" width="258.4616216216216" height="43.07692307692309" as="geometry" />
        </mxCell>
        <mxCell id="Cd3ZHtpQ2IgxeuWron2F-203" value="k3n512s1" style="text;html=1;strokeColor=none;fillColor=none;align=center;verticalAlign=middle;whiteSpace=wrap;rounded=0;fontSize=22;" vertex="1" parent="1">
          <mxGeometry x="1832.001972972973" y="1804.019230769231" width="258.4616216216216" height="43.07692307692309" as="geometry" />
        </mxCell>
        <mxCell id="Cd3ZHtpQ2IgxeuWron2F-204" value="k3n512s2" style="text;html=1;strokeColor=none;fillColor=none;align=center;verticalAlign=middle;whiteSpace=wrap;rounded=0;fontSize=22;" vertex="1" parent="1">
          <mxGeometry x="1989.2327927927927" y="1890.1730769230771" width="258.4616216216216" height="43.07692307692309" as="geometry" />
        </mxCell>
        <mxCell id="Cd3ZHtpQ2IgxeuWron2F-205" value="Dense (1024)" style="rounded=0;whiteSpace=wrap;html=1;fillColor=#FFFF66;strokeColor=#d6b656;align=center;verticalAlign=middle;fontSize=22;" vertex="1" parent="1">
          <mxGeometry x="2204.617477477477" y="1599.4038461538462" width="107.69234234234233" height="129.23076923076925" as="geometry" />
        </mxCell>
        <mxCell id="Cd3ZHtpQ2IgxeuWron2F-206" value="Leaky ReLU" style="rounded=0;whiteSpace=wrap;html=1;fillColor=#fff2cc;strokeColor=#d6b656;align=center;verticalAlign=middle;fontSize=22;" vertex="1" parent="1">
          <mxGeometry x="2312.30981981982" y="1599.4038461538462" width="107.69234234234233" height="129.23076923076925" as="geometry" />
        </mxCell>
        <mxCell id="Cd3ZHtpQ2IgxeuWron2F-207" value="Dense (1)" style="rounded=0;whiteSpace=wrap;html=1;fillColor=#FFFF66;strokeColor=#d6b656;align=center;verticalAlign=middle;fontSize=22;" vertex="1" parent="1">
          <mxGeometry x="2420.0021621621618" y="1599.4038461538462" width="107.69234234234233" height="129.23076923076925" as="geometry" />
        </mxCell>
        <mxCell id="Cd3ZHtpQ2IgxeuWron2F-209" value="Real or Fake" style="shape=rectangle;whiteSpace=wrap;html=1;strokeColor=#a1c7ff;fillColor=#FFFFFF;fontSize=22;verticalAlign=middle;align=center;" vertex="1" parent="1">
          <mxGeometry x="2613.8507207207203" y="1599.4038461538462" width="150.76927927927926" height="129.23076923076925" as="geometry" />
        </mxCell>
        <mxCell id="Cd3ZHtpQ2IgxeuWron2F-214" style="edgeStyle=orthogonalEdgeStyle;rounded=0;orthogonalLoop=1;jettySize=auto;html=1;endArrow=none;endFill=1;strokeColor=#3399FF;strokeWidth=3;startFill=0;fontSize=22;" edge="1" parent="1">
          <mxGeometry relative="1" as="geometry">
            <mxPoint x="1513.2326396396395" y="1662.9853846153846" as="sourcePoint" />
            <mxPoint x="1558.4634234234234" y="1662.9853846153846" as="targetPoint" />
          </mxGeometry>
        </mxCell>
        <mxCell id="Cd3ZHtpQ2IgxeuWron2F-215" style="edgeStyle=orthogonalEdgeStyle;rounded=0;orthogonalLoop=1;jettySize=auto;html=1;endArrow=classic;endFill=1;strokeColor=#3399FF;strokeWidth=2;fontSize=22;" edge="1" parent="1" target="Cd3ZHtpQ2IgxeuWron2F-209">
          <mxGeometry relative="1" as="geometry">
            <mxPoint x="2527.6968468468463" y="1664.019230769231" as="sourcePoint" />
          </mxGeometry>
        </mxCell>
        <mxCell id="Cd3ZHtpQ2IgxeuWron2F-216" value="" style="group;fontSize=22;" vertex="1" connectable="0" parent="1">
          <mxGeometry x="1429.2326126126127" y="1577.8653846153848" width="86.15387387387386" height="183.0769230769231" as="geometry" />
        </mxCell>
        <mxCell id="Cd3ZHtpQ2IgxeuWron2F-217" value="" style="rounded=0;whiteSpace=wrap;html=1;fillColor=#FFFFFF;strokeColor=#6c8ebf;fontSize=22;" vertex="1" parent="Cd3ZHtpQ2IgxeuWron2F-216">
          <mxGeometry width="86.15387387387386" height="183.0769230769231" as="geometry" />
        </mxCell>
        <mxCell id="Cd3ZHtpQ2IgxeuWron2F-218" value="" style="rounded=0;whiteSpace=wrap;html=1;fillColor=#f8c471;strokeColor=#b85450;fontSize=22;" vertex="1" parent="Cd3ZHtpQ2IgxeuWron2F-216">
          <mxGeometry x="34.461549549549545" y="15.256410256410259" width="17.230774774774773" height="152.56410256410257" as="geometry" />
        </mxCell>
        <mxCell id="Cd3ZHtpQ2IgxeuWron2F-219" value="" style="rounded=0;whiteSpace=wrap;html=1;fillColor=#fff2cc;strokeColor=#d6b656;fontSize=22;" vertex="1" parent="Cd3ZHtpQ2IgxeuWron2F-216">
          <mxGeometry x="51.69232432432432" y="15.256410256410259" width="17.230774774774773" height="152.56410256410257" as="geometry" />
        </mxCell>
        <mxCell id="Cd3ZHtpQ2IgxeuWron2F-220" value="" style="rounded=0;whiteSpace=wrap;html=1;fillColor=#dae8fc;strokeColor=#6c8ebf;fontSize=22;" vertex="1" parent="Cd3ZHtpQ2IgxeuWron2F-216">
          <mxGeometry x="17.230774774774773" y="15.256410256410259" width="17.230774774774773" height="152.56410256410257" as="geometry" />
        </mxCell>
        <mxCell id="Cd3ZHtpQ2IgxeuWron2F-221" style="edgeStyle=orthogonalEdgeStyle;rounded=0;orthogonalLoop=1;jettySize=auto;html=1;endArrow=none;endFill=1;strokeColor=#3399FF;strokeWidth=3;startFill=0;fontSize=22;" edge="1" parent="1">
          <mxGeometry relative="1" as="geometry">
            <mxPoint x="1642.4634504504504" y="1662.9853846153846" as="sourcePoint" />
            <mxPoint x="1687.694234234234" y="1662.9853846153846" as="targetPoint" />
          </mxGeometry>
        </mxCell>
        <mxCell id="Cd3ZHtpQ2IgxeuWron2F-222" value="" style="group;fontSize=22;" vertex="1" connectable="0" parent="1">
          <mxGeometry x="1558.4634234234234" y="1577.8653846153848" width="86.15387387387386" height="183.0769230769231" as="geometry" />
        </mxCell>
        <mxCell id="Cd3ZHtpQ2IgxeuWron2F-223" value="" style="rounded=0;whiteSpace=wrap;html=1;fillColor=#FFFFFF;strokeColor=#6c8ebf;fontSize=22;" vertex="1" parent="Cd3ZHtpQ2IgxeuWron2F-222">
          <mxGeometry width="86.15387387387386" height="183.0769230769231" as="geometry" />
        </mxCell>
        <mxCell id="Cd3ZHtpQ2IgxeuWron2F-224" value="" style="rounded=0;whiteSpace=wrap;html=1;fillColor=#f8c471;strokeColor=#b85450;fontSize=22;" vertex="1" parent="Cd3ZHtpQ2IgxeuWron2F-222">
          <mxGeometry x="34.461549549549545" y="15.256410256410259" width="17.230774774774773" height="152.56410256410257" as="geometry" />
        </mxCell>
        <mxCell id="Cd3ZHtpQ2IgxeuWron2F-225" value="" style="rounded=0;whiteSpace=wrap;html=1;fillColor=#fff2cc;strokeColor=#d6b656;fontSize=22;" vertex="1" parent="Cd3ZHtpQ2IgxeuWron2F-222">
          <mxGeometry x="51.69232432432432" y="15.256410256410259" width="17.230774774774773" height="152.56410256410257" as="geometry" />
        </mxCell>
        <mxCell id="Cd3ZHtpQ2IgxeuWron2F-226" value="" style="rounded=0;whiteSpace=wrap;html=1;fillColor=#dae8fc;strokeColor=#6c8ebf;fontSize=22;" vertex="1" parent="Cd3ZHtpQ2IgxeuWron2F-222">
          <mxGeometry x="17.230774774774773" y="15.256410256410259" width="17.230774774774773" height="152.56410256410257" as="geometry" />
        </mxCell>
        <mxCell id="Cd3ZHtpQ2IgxeuWron2F-227" style="edgeStyle=orthogonalEdgeStyle;rounded=0;orthogonalLoop=1;jettySize=auto;html=1;endArrow=none;endFill=1;strokeColor=#3399FF;strokeWidth=3;startFill=0;fontSize=22;" edge="1" parent="1">
          <mxGeometry relative="1" as="geometry">
            <mxPoint x="1771.694261261261" y="1662.9853846153846" as="sourcePoint" />
            <mxPoint x="1816.925045045045" y="1662.9853846153846" as="targetPoint" />
          </mxGeometry>
        </mxCell>
        <mxCell id="Cd3ZHtpQ2IgxeuWron2F-228" value="" style="group;fontSize=22;" vertex="1" connectable="0" parent="1">
          <mxGeometry x="1687.694234234234" y="1577.8653846153848" width="86.15387387387386" height="183.0769230769231" as="geometry" />
        </mxCell>
        <mxCell id="Cd3ZHtpQ2IgxeuWron2F-229" value="" style="rounded=0;whiteSpace=wrap;html=1;fillColor=#FFFFFF;strokeColor=#6c8ebf;fontSize=22;" vertex="1" parent="Cd3ZHtpQ2IgxeuWron2F-228">
          <mxGeometry width="86.15387387387386" height="183.0769230769231" as="geometry" />
        </mxCell>
        <mxCell id="Cd3ZHtpQ2IgxeuWron2F-230" value="" style="rounded=0;whiteSpace=wrap;html=1;fillColor=#f8c471;strokeColor=#b85450;fontSize=22;" vertex="1" parent="Cd3ZHtpQ2IgxeuWron2F-228">
          <mxGeometry x="34.461549549549545" y="15.256410256410259" width="17.230774774774773" height="152.56410256410257" as="geometry" />
        </mxCell>
        <mxCell id="Cd3ZHtpQ2IgxeuWron2F-231" value="" style="rounded=0;whiteSpace=wrap;html=1;fillColor=#fff2cc;strokeColor=#d6b656;fontSize=22;" vertex="1" parent="Cd3ZHtpQ2IgxeuWron2F-228">
          <mxGeometry x="51.69232432432432" y="15.256410256410259" width="17.230774774774773" height="152.56410256410257" as="geometry" />
        </mxCell>
        <mxCell id="Cd3ZHtpQ2IgxeuWron2F-232" value="" style="rounded=0;whiteSpace=wrap;html=1;fillColor=#dae8fc;strokeColor=#6c8ebf;fontSize=22;" vertex="1" parent="Cd3ZHtpQ2IgxeuWron2F-228">
          <mxGeometry x="17.230774774774773" y="15.256410256410259" width="17.230774774774773" height="152.56410256410257" as="geometry" />
        </mxCell>
        <mxCell id="Cd3ZHtpQ2IgxeuWron2F-233" style="edgeStyle=orthogonalEdgeStyle;rounded=0;orthogonalLoop=1;jettySize=auto;html=1;endArrow=none;endFill=1;strokeColor=#3399FF;strokeWidth=3;startFill=0;fontSize=22;" edge="1" parent="1">
          <mxGeometry relative="1" as="geometry">
            <mxPoint x="1900.925072072072" y="1662.9853846153846" as="sourcePoint" />
            <mxPoint x="1946.1558558558556" y="1662.9853846153846" as="targetPoint" />
          </mxGeometry>
        </mxCell>
        <mxCell id="Cd3ZHtpQ2IgxeuWron2F-234" value="" style="group;fontSize=22;" vertex="1" connectable="0" parent="1">
          <mxGeometry x="1816.925045045045" y="1577.8653846153848" width="86.15387387387386" height="183.0769230769231" as="geometry" />
        </mxCell>
        <mxCell id="Cd3ZHtpQ2IgxeuWron2F-235" value="" style="rounded=0;whiteSpace=wrap;html=1;fillColor=#FFFFFF;strokeColor=#6c8ebf;fontSize=22;" vertex="1" parent="Cd3ZHtpQ2IgxeuWron2F-234">
          <mxGeometry width="86.15387387387386" height="183.0769230769231" as="geometry" />
        </mxCell>
        <mxCell id="Cd3ZHtpQ2IgxeuWron2F-236" value="" style="rounded=0;whiteSpace=wrap;html=1;fillColor=#f8c471;strokeColor=#b85450;fontSize=22;" vertex="1" parent="Cd3ZHtpQ2IgxeuWron2F-234">
          <mxGeometry x="34.461549549549545" y="15.256410256410259" width="17.230774774774773" height="152.56410256410257" as="geometry" />
        </mxCell>
        <mxCell id="Cd3ZHtpQ2IgxeuWron2F-237" value="" style="rounded=0;whiteSpace=wrap;html=1;fillColor=#fff2cc;strokeColor=#d6b656;fontSize=22;" vertex="1" parent="Cd3ZHtpQ2IgxeuWron2F-234">
          <mxGeometry x="51.69232432432432" y="15.256410256410259" width="17.230774774774773" height="152.56410256410257" as="geometry" />
        </mxCell>
        <mxCell id="Cd3ZHtpQ2IgxeuWron2F-238" value="" style="rounded=0;whiteSpace=wrap;html=1;fillColor=#dae8fc;strokeColor=#6c8ebf;fontSize=22;" vertex="1" parent="Cd3ZHtpQ2IgxeuWron2F-234">
          <mxGeometry x="17.230774774774773" y="15.256410256410259" width="17.230774774774773" height="152.56410256410257" as="geometry" />
        </mxCell>
        <mxCell id="Cd3ZHtpQ2IgxeuWron2F-239" style="edgeStyle=orthogonalEdgeStyle;rounded=0;orthogonalLoop=1;jettySize=auto;html=1;endArrow=none;endFill=1;strokeColor=#3399FF;strokeWidth=3;startFill=0;fontSize=22;" edge="1" parent="1">
          <mxGeometry relative="1" as="geometry">
            <mxPoint x="2030.155882882883" y="1662.9853846153846" as="sourcePoint" />
            <mxPoint x="2075.3866666666663" y="1662.9853846153846" as="targetPoint" />
          </mxGeometry>
        </mxCell>
        <mxCell id="Cd3ZHtpQ2IgxeuWron2F-240" value="" style="group;fontSize=22;" vertex="1" connectable="0" parent="1">
          <mxGeometry x="1946.1558558558556" y="1577.8653846153848" width="86.15387387387386" height="183.0769230769231" as="geometry" />
        </mxCell>
        <mxCell id="Cd3ZHtpQ2IgxeuWron2F-241" value="" style="rounded=0;whiteSpace=wrap;html=1;fillColor=#FFFFFF;strokeColor=#6c8ebf;fontSize=22;" vertex="1" parent="Cd3ZHtpQ2IgxeuWron2F-240">
          <mxGeometry width="86.15387387387386" height="183.0769230769231" as="geometry" />
        </mxCell>
        <mxCell id="Cd3ZHtpQ2IgxeuWron2F-242" value="" style="rounded=0;whiteSpace=wrap;html=1;fillColor=#f8c471;strokeColor=#b85450;fontSize=22;" vertex="1" parent="Cd3ZHtpQ2IgxeuWron2F-240">
          <mxGeometry x="34.461549549549545" y="15.256410256410259" width="17.230774774774773" height="152.56410256410257" as="geometry" />
        </mxCell>
        <mxCell id="Cd3ZHtpQ2IgxeuWron2F-243" value="" style="rounded=0;whiteSpace=wrap;html=1;fillColor=#fff2cc;strokeColor=#d6b656;fontSize=22;" vertex="1" parent="Cd3ZHtpQ2IgxeuWron2F-240">
          <mxGeometry x="51.69232432432432" y="15.256410256410259" width="17.230774774774773" height="152.56410256410257" as="geometry" />
        </mxCell>
        <mxCell id="Cd3ZHtpQ2IgxeuWron2F-244" value="" style="rounded=0;whiteSpace=wrap;html=1;fillColor=#dae8fc;strokeColor=#6c8ebf;fontSize=22;" vertex="1" parent="Cd3ZHtpQ2IgxeuWron2F-240">
          <mxGeometry x="17.230774774774773" y="15.256410256410259" width="17.230774774774773" height="152.56410256410257" as="geometry" />
        </mxCell>
        <mxCell id="Cd3ZHtpQ2IgxeuWron2F-245" style="edgeStyle=orthogonalEdgeStyle;rounded=0;orthogonalLoop=1;jettySize=auto;html=1;endArrow=none;endFill=1;strokeColor=#3399FF;strokeWidth=3;startFill=0;fontSize=22;" edge="1" parent="1">
          <mxGeometry relative="1" as="geometry">
            <mxPoint x="2159.3866936936934" y="1662.9853846153846" as="sourcePoint" />
            <mxPoint x="2204.617477477477" y="1662.9853846153846" as="targetPoint" />
          </mxGeometry>
        </mxCell>
        <mxCell id="Cd3ZHtpQ2IgxeuWron2F-246" value="" style="group;fontSize=22;" vertex="1" connectable="0" parent="1">
          <mxGeometry x="2075.3866666666663" y="1577.8653846153848" width="86.15387387387386" height="183.0769230769231" as="geometry" />
        </mxCell>
        <mxCell id="Cd3ZHtpQ2IgxeuWron2F-247" value="" style="rounded=0;whiteSpace=wrap;html=1;fillColor=#FFFFFF;strokeColor=#6c8ebf;fontSize=22;" vertex="1" parent="Cd3ZHtpQ2IgxeuWron2F-246">
          <mxGeometry width="86.15387387387386" height="183.0769230769231" as="geometry" />
        </mxCell>
        <mxCell id="Cd3ZHtpQ2IgxeuWron2F-248" value="" style="rounded=0;whiteSpace=wrap;html=1;fillColor=#f8c471;strokeColor=#b85450;fontSize=22;" vertex="1" parent="Cd3ZHtpQ2IgxeuWron2F-246">
          <mxGeometry x="34.461549549549545" y="15.256410256410259" width="17.230774774774773" height="152.56410256410257" as="geometry" />
        </mxCell>
        <mxCell id="Cd3ZHtpQ2IgxeuWron2F-249" value="" style="rounded=0;whiteSpace=wrap;html=1;fillColor=#fff2cc;strokeColor=#d6b656;fontSize=22;" vertex="1" parent="Cd3ZHtpQ2IgxeuWron2F-246">
          <mxGeometry x="51.69232432432432" y="15.256410256410259" width="17.230774774774773" height="152.56410256410257" as="geometry" />
        </mxCell>
        <mxCell id="Cd3ZHtpQ2IgxeuWron2F-250" value="" style="rounded=0;whiteSpace=wrap;html=1;fillColor=#dae8fc;strokeColor=#6c8ebf;fontSize=22;" vertex="1" parent="Cd3ZHtpQ2IgxeuWron2F-246">
          <mxGeometry x="17.230774774774773" y="15.256410256410259" width="17.230774774774773" height="152.56410256410257" as="geometry" />
        </mxCell>
        <mxCell id="Cd3ZHtpQ2IgxeuWron2F-268" style="edgeStyle=orthogonalEdgeStyle;rounded=0;orthogonalLoop=1;jettySize=auto;html=1;exitX=1;exitY=0.5;exitDx=0;exitDy=0;entryX=0;entryY=0.5;entryDx=0;entryDy=0;endArrow=none;startFill=0;strokeColor=#3399FF;strokeWidth=3;" edge="1" parent="1" source="Cd3ZHtpQ2IgxeuWron2F-253" target="Cd3ZHtpQ2IgxeuWron2F-256">
          <mxGeometry relative="1" as="geometry" />
        </mxCell>
        <mxCell id="Cd3ZHtpQ2IgxeuWron2F-253" value="&lt;i&gt;I&lt;sup&gt;LR&lt;/sup&gt;&lt;/i&gt;" style="shape=rectangle;whiteSpace=wrap;html=1;strokeColor=#a1c7ff;fillColor=#FFFFFF;fontSize=22;verticalAlign=middle;align=center;" vertex="1" parent="1">
          <mxGeometry x="140.00000000000003" y="1790.56" width="131.98200000000003" height="126.93531283138918" as="geometry" />
        </mxCell>
        <mxCell id="Cd3ZHtpQ2IgxeuWron2F-267" style="edgeStyle=orthogonalEdgeStyle;rounded=0;orthogonalLoop=1;jettySize=auto;html=1;exitX=1;exitY=0.5;exitDx=0;exitDy=0;entryX=0;entryY=0.5;entryDx=0;entryDy=0;endArrow=none;startFill=0;strokeColor=#3399FF;strokeWidth=3;" edge="1" parent="1" source="Cd3ZHtpQ2IgxeuWron2F-254" target="Cd3ZHtpQ2IgxeuWron2F-192">
          <mxGeometry relative="1" as="geometry">
            <mxPoint x="370" y="1450" as="targetPoint" />
          </mxGeometry>
        </mxCell>
        <mxCell id="Cd3ZHtpQ2IgxeuWron2F-254" value="&lt;i&gt;I&lt;sup&gt;SR&lt;/sup&gt;&lt;/i&gt;" style="shape=rectangle;whiteSpace=wrap;html=1;strokeColor=#a1c7ff;fillColor=#FEFFE8;fontSize=22;verticalAlign=middle;align=center;" vertex="1" parent="1">
          <mxGeometry x="140" y="1497.87" width="129.2308108108108" height="129.23076923076925" as="geometry" />
        </mxCell>
        <mxCell id="Cd3ZHtpQ2IgxeuWron2F-265" style="rounded=0;orthogonalLoop=1;jettySize=auto;html=1;exitX=1;exitY=0.5;exitDx=0;exitDy=0;entryX=0;entryY=0.75;entryDx=0;entryDy=0;" edge="1" parent="1" source="Cd3ZHtpQ2IgxeuWron2F-255" target="Cd3ZHtpQ2IgxeuWron2F-132">
          <mxGeometry relative="1" as="geometry" />
        </mxCell>
        <mxCell id="Cd3ZHtpQ2IgxeuWron2F-255" value="" style="rounded=0;whiteSpace=wrap;html=1;fillColor=#FFFFFF;strokeColor=#6c8ebf;fontSize=22;" vertex="1" parent="1">
          <mxGeometry x="721.3847252252251" y="1767.87" width="301.5385585585585" height="183.0769230769231" as="geometry" />
        </mxCell>
        <mxCell id="Cd3ZHtpQ2IgxeuWron2F-256" value="" style="rounded=0;whiteSpace=wrap;html=1;fillColor=#dae8fc;strokeColor=#6c8ebf;align=center;verticalAlign=middle;fontSize=22;" vertex="1" parent="1">
          <mxGeometry x="436.00001801801795" y="1789.4084615384613" width="107.69234234234233" height="129.23076923076925" as="geometry" />
        </mxCell>
        <mxCell id="Cd3ZHtpQ2IgxeuWron2F-257" value="" style="rounded=0;whiteSpace=wrap;html=1;fillColor=#fff2cc;strokeColor=#d6b656;align=center;verticalAlign=middle;fontSize=22;" vertex="1" parent="1">
          <mxGeometry x="543.6923603603603" y="1789.4084615384613" width="107.69234234234233" height="129.23076923076925" as="geometry" />
        </mxCell>
        <mxCell id="Cd3ZHtpQ2IgxeuWron2F-258" value="k3n64s1" style="text;html=1;strokeColor=none;fillColor=none;align=center;verticalAlign=middle;whiteSpace=wrap;rounded=0;fontSize=22;" vertex="1" parent="1">
          <mxGeometry x="380" y="1994.023846153846" width="215.38468468468466" height="43.07692307692309" as="geometry" />
        </mxCell>
        <mxCell id="Cd3ZHtpQ2IgxeuWron2F-259" value="" style="rounded=0;whiteSpace=wrap;html=1;fillColor=#dae8fc;strokeColor=#6c8ebf;align=center;verticalAlign=middle;fontSize=22;" vertex="1" parent="1">
          <mxGeometry x="742.9231936936935" y="1789.4084615384613" width="86.15387387387386" height="129.23076923076925" as="geometry" />
        </mxCell>
        <mxCell id="Cd3ZHtpQ2IgxeuWron2F-260" value="" style="rounded=0;whiteSpace=wrap;html=1;fillColor=#f8c471;strokeColor=#b85450;align=center;verticalAlign=middle;fontSize=22;" vertex="1" parent="1">
          <mxGeometry x="829.0770675675674" y="1789.4084615384613" width="64.6154054054054" height="129.23076923076925" as="geometry" />
        </mxCell>
        <mxCell id="Cd3ZHtpQ2IgxeuWron2F-261" value="" style="rounded=0;whiteSpace=wrap;html=1;fillColor=#fff2cc;strokeColor=#d6b656;align=center;verticalAlign=middle;fontSize=22;" vertex="1" parent="1">
          <mxGeometry x="893.6924729729728" y="1789.4084615384613" width="107.69234234234233" height="129.23076923076925" as="geometry" />
        </mxCell>
        <mxCell id="Cd3ZHtpQ2IgxeuWron2F-262" value="k3n128s2" style="text;html=1;strokeColor=none;fillColor=none;align=center;verticalAlign=middle;whiteSpace=wrap;rounded=0;fontSize=22;" vertex="1" parent="1">
          <mxGeometry x="638.4616216216216" y="1994.023846153846" width="258.4616216216216" height="43.07692307692309" as="geometry" />
        </mxCell>
      </root>
    </mxGraphModel>
  </diagram>
</mxfile>
